<svg xmlns="http://www.w3.org/2000/svg" viewBox="0 0 472.4 472.4"><title>Email</title><g id="Layer_2" data-name="Layer 2"><g id="Layer_1-2" data-name="Layer 1"><g id="OBJECTS"><path d="M336.36,204.64a12.08,12.08,0,0,1-2.58,1.66l-90.67,60.48a11.52,11.52,0,0,1-6.62,2.06,11.78,11.78,0,0,1-6.71-2.06L138.89,206.3a12.08,12.08,0,1,1,12.28-20.81c.36.22.71.45,1.05.7l84.27,56,84.26-56a12.08,12.08,0,0,1,15.61,18.45Z"/></g><path d="M337.78,187.61a12,12,0,0,1-4,18.69l-90.67,60.48a11.52,11.52,0,0,1-6.62,2.06,11.78,11.78,0,0,1-6.71-2.06L138.89,206.3a12.08,12.08,0,1,1,12.28-20.81c.36.22.71.45,1.05.7l84.27,56,84.26-56A12.09,12.09,0,0,1,337.78,187.61Z"/><path d="M236.2,0C105.75,0,0,105.75,0,236.2S105.75,472.4,236.2,472.4,472.4,366.65,472.4,236.2,366.65,0,236.2,0ZM389.4,313.48a24.09,24.09,0,0,1-24.16,24H107.29A24,24,0,0,1,83.35,313.4V157.91a24,24,0,0,1,24.31-23.72h257.8a24.08,24.08,0,0,1,23.94,24.09Z"/></g></g></svg>